<svg width="1440" height="1290" viewBox="0 0 1440 1290" fill="none" xmlns="http://www.w3.org/2000/svg">
<path d="M-758.223 329.606C-758.223 329.606 -519.991 196.846 -367.593 290.273C-243.707 366.223 -199.258 439.291 -128.631 549.085C-75.911 631.041 -28.6488 812.621 80.5391 838.649C154.393 856.255 307.463 766.392 382.626 775.593C509.222 791.092 503.317 864.003 566.038 915.988C602.342 946.077 686.755 868.914 802.824 866.895C892.1 865.342 957.225 924.007 1011.61 871.791C1098.53 788.333 1068.11 745.289 1211.3 746.372C1316.51 747.167 1341.34 778.469 1434.04 746.03C1568.58 698.949 1433.61 494.534 1549.31 438.658C1623.08 403.029 1748.85 562.759 1801.02 508.373C1882.2 423.764 2024.05 458.546 2024.05 458.546" stroke="black"/>
<path d="M-501.054 498.354C-570.455 488.332 -465.273 613.196 -365.686 590.363C-266.099 567.531 -231.878 511.822 -109.693 482.856C-18.6733 461.278 66.3725 518.583 88.4854 626.45C110.598 734.318 62.9942 827.694 115.084 893.364C239.245 1049.89 396.035 676.961 618.32 703.637C738.033 718.004 767.046 883.907 889.897 958.654C1012.75 1033.4 952.315 776.208 1086.87 692.266C1202.54 620.105 1338.16 505.333 1538.39 609.539C1645.81 665.445 1844.35 577.803 1977.8 548.841" stroke="black" stroke-width="5"/>
<path d="M-580.887 376.462C-369.221 294.788 -289.714 603.419 -15.537 662.993C67.1088 680.95 129.885 874.715 204.738 911.833C371.859 994.702 549.852 835.887 709.962 762.486C888.605 680.589 1059.02 934.513 1203.42 829.889C1315.4 748.747 1291.19 574.67 1498.71 529.383C1706.23 484.096 2040.3 690.037 2040.3 690.037" stroke="#A2B6FF" stroke-width="4"/>
</svg>
