<svg width="1440" height="700" viewBox="0 0 1440 700" fill="none" xmlns="http://www.w3.org/2000/svg">
<rect x="-119" y="164.673" width="1587" height="340.851" fill="#E3EBFF"/>
<path d="M1541.97 211.433C1541.97 211.433 1636.59 123.452 1568.46 120.827C1538.25 119.662 1642.22 101.438 1611.96 101.771C1579.81 102.124 1502.17 112.871 1473.96 101.771C1430.89 84.8227 1393.38 86.5013 1345.96 77.3217C1290.49 66.5811 1256.24 124.953 1200.46 134.849C1150.99 143.629 1071.58 70.6746 1021.46 77.3217C971.75 83.9152 992.965 99.9732 915.465 134.849C883.729 149.131 856.965 157.141 781.965 120.827C719.897 90.7744 712.151 58.6694 641.965 77.3217C549.965 101.771 578.965 134.849 474.965 134.849C425.458 134.849 382.965 77.3217 329.965 101.771C293.989 118.367 237.965 159.299 174.965 145.276C111.965 131.254 111.965 60.0634 39.4649 40.6478C-30.1725 21.9988 -44.3685 90.6249 -93.5351 66.8948C-142.702 43.1646 -105.535 101.771 -105.535 101.771V211.433H1541.97Z" fill="#E3EBFF" stroke="#E3EBFF" stroke-width="6"/>
<path d="M-282.948 469.126C-282.948 469.126 -423.314 555.855 -323.403 559.376C-279.082 560.939 -431.965 577.792 -387.56 577.858C-340.377 577.928 -105.071 559.491 -63.8724 570.962C-0.966448 588.476 18.6276 652.579 105.628 652.579C188.387 652.579 209.617 559.362 291.628 550.201C364.38 542.074 442.975 658.566 516.628 652.579C589.687 646.641 583.85 574.67 705.628 590.018C802.628 602.243 791.711 522.077 901.128 559.376C991.677 590.244 981.128 635.191 1058.63 635.191C1136.13 635.191 1085.03 548.832 1237.63 550.201C1310.27 550.853 1343.44 638.828 1421.63 615.079C1474.7 598.958 1566.43 535.35 1658.63 550.201C1750.82 565.052 1731.59 646.233 1837.63 666.602C1939.48 686.166 2042.56 610.815 2114.29 635.191C2186.02 659.566 2132.5 600.475 2132.5 600.475L2134.4 490.822L-282.948 469.126Z" fill="#E3EBFF" stroke="#E3EBFF" stroke-width="6"/>
<path d="M-23.9927 431.466C33.2012 425.44 25.0563 535.781 78.0261 551.188C144.589 570.549 199.334 523.683 239.181 560.152C279.029 596.621 355.738 526.239 394.329 509.896C453.733 484.739 467.578 509.42 525.842 549.228C584.075 589.016 664.02 510.706 717.531 575.332C771.041 639.958 844.854 626.204 875.48 616.097C905.869 606.067 944.463 551.514 999.582 565.808C1090.51 589.388 1122.26 625.55 1192.99 642.47C1267.24 660.231 1301.35 583.491 1328.99 602.224C1366.15 627.409 1402.03 657.98 1437.04 650.435C1472.05 642.89 1537.74 572.831 1583.4 580.308" stroke="#A2B6FF" stroke-width="10"/>
<path d="M1617.5 196.944C1617.5 196.944 1489.78 247.306 1391.5 196.944C1326.85 163.818 1318.67 132.708 1250.5 103.461C1145.95 58.6045 1046.5 148.764 903.5 68.9447C856.741 42.8446 796.925 114.686 740.5 127.551C651.423 147.86 616 71.4616 534.5 90.1581C453 108.855 392.112 201.767 338 164.944C263.5 114.248 268.333 257.468 206.5 266.336C144.667 275.205 89.8743 132.718 37.5 148.764C-8.48708 162.854 -61 148.764 -61 148.764" stroke="#A2B6FF" stroke-width="10"/>
<path d="M-118 568.344C-118 568.344 -74.8726 545.809 -32.4735 551.223C30.7024 559.289 58.9336 615.162 114.071 630.354C149.505 640.118 151.673 567.515 192.095 572.937C252.82 581.082 276.12 621.167 340.64 604.047C405.16 586.926 439.395 633.734 468.179 637.244C601.719 653.53 535.199 601.74 535.199 580.036C535.199 561.453 616.1 528.726 650.234 532.014C698.742 536.687 650.673 590.909 689.246 604.047C750.619 624.95 747.389 639.75 826.288 642.673C880.604 644.685 899.516 631.182 930.319 612.398C956.91 596.183 954.327 556.86 1008.34 545.168C1086.63 528.222 1075.08 588.686 1132.38 580.036C1181.93 572.556 1194.83 542.826 1245.92 537.443C1297.43 532.014 1292.04 588.387 1332.94 588.387C1383.46 588.387 1441.93 538.772 1495.99 537.443C1553.39 536.031 1494.99 493.945 1526 508.63" stroke="white" stroke-width="5"/>
<path d="M1465.15 124.409C1465.15 124.409 1484.47 157.892 1390.33 209.439C1288.5 265.193 1290.15 150.21 1204.29 129.48C1149.12 116.157 1108.05 179.115 1044.52 170.111C949.09 156.583 953.984 108.646 825.015 131.172C696.046 153.698 654.949 101.421 610.546 93.6056C461.368 67.3477 404.266 117.634 404.893 135.186C405.924 164.083 317.547 191.134 280.211 179.939C242.876 168.744 301.392 124.068 241.588 106.847C146.434 79.4454 120.231 122.26 8.39514 129.866C-96.6656 137.011 -412.614 80.5697 -463.369 98.5339M-463.369 98.5339C-507.183 114.041 -183.474 137.435 -270.303 145.918C-396.15 158.213 -371.642 93.6009 -463.369 98.5339ZM-463.369 98.5339C-542.681 102.799 -566.181 134.01 -647.715 135.885C-729.939 137.775 -715.622 77.1182 -780.463 73.9499C-860.544 70.0369 -958.326 119.26 -1044.16 116.513C-1135.3 113.596 -1047.03 163.716 -1094.68 145.405" stroke="white" stroke-width="5"/>
<path d="M638.985 78.1359C638.985 78.1359 641.488 59.5594 583.413 53.4504C525.339 47.3413 455.249 161.543 392.167 128.255C318.884 89.583 277.52 97.9589 234.465 163.039C191.409 228.119 133.835 265.521 83.771 228.119C33.7066 190.717 -16.3577 210.166 -32.879 262.903C-51.2132 321.427 -103.47 360.149 -101.968 372.492" stroke="black" stroke-width="2"/>
<path d="M1610 558.215C1610 558.215 1529.09 540.389 1478.82 547.657C1399.04 559.193 1452.3 643.402 1370.3 642.36C1294.52 641.398 1253.88 542.858 1177.49 529.42C1139.57 522.75 1096.68 563.24 1088.46 586.69C1065.81 651.319 925.478 673.921 900.391 642.36C856.139 586.69 771.147 586.289 746.424 538.303C721.778 490.467 592.337 479.65 511.269 577.406C450.391 650.815 332.825 648.545 270.94 596.957C132.39 481.457 62.5264 683.951 -42.0675 663.156C-101.363 651.368 -139 642.36 -139 642.36" stroke="black" stroke-width="2"/>
</svg>
